<svg width="4026" height="1600" xmlns="http://www.w3.org/2000/svg" fill="none">

 <g>
  <title>Layer 1</title>
  <path id="svg_1" fill="white" d="m567.957,1895l-55.538,-152.62l34.976,0l33.281,90.93l33.28,-90.93l30.312,0l33.493,90.93l33.28,-90.93l34.764,0l-55.538,152.62l-25.225,0l-36.036,-98.15l-35.824,98.15l-25.225,0zm249.859,0l-55.538,-152.62l34.976,0l33.28,90.93l33.281,-90.93l30.312,0l33.493,90.93l33.28,-90.93l34.764,0l-55.538,152.62l-25.225,0l-36.036,-98.15l-35.824,98.15l-25.225,0zm249.854,0l-55.53,-152.62l34.97,0l33.28,90.93l33.28,-90.93l30.32,0l33.49,90.93l33.28,-90.93l34.76,0l-55.53,152.62l-25.23,0l-36.04,-98.15l-35.82,98.15l-25.23,0zm198.35,0l0,-32.43l32.44,0l0,32.43l-32.44,0zm102.05,0l0,-119.55l-59.78,0l0,-33.07l152.62,0l0,33.07l-59.77,0l0,119.55l-33.07,0zm109.12,0l0,-121.25c0,-5.79 1.41,-11.02 4.24,-15.69c2.83,-4.8 6.64,-8.62 11.45,-11.44c4.8,-2.83 10.03,-4.24 15.68,-4.24l89.67,0c5.79,0 11.02,1.41 15.69,4.24c4.8,2.82 8.62,6.64 11.44,11.44c2.97,4.67 4.45,9.9 4.45,15.69l0,121.25l-33.28,0l0,-49.18l-86.48,0l0,49.18l-32.86,0zm32.86,-82.25l86.48,0l0,-37.3l-86.48,0l0,37.3zm143.92,82.25l0,-152.41l121.04,0c5.79,0 11.02,1.41 15.68,4.24c4.81,2.82 8.62,6.64 11.45,11.45c2.97,4.8 4.45,10.03 4.45,15.68l0,39.43c0,5.65 -1.48,10.88 -4.45,15.69c-2.83,4.8 -6.64,8.62 -11.45,11.44c-4.66,2.83 -9.89,4.24 -15.68,4.24l-88.19,0.21l0,50.03l-32.85,0zm32.85,-83.31l86.49,0l0,-36.24l-86.49,0l0,36.24zm135.25,83.31l0,-152.62l140.96,0l0,33.07l-107.68,0l0,26.7l86.7,0l0,33.07l-86.7,0l0,26.71l107.68,0l0,33.07l-140.96,0zm192.82,0c-5.66,0 -10.89,-1.41 -15.69,-4.24c-4.8,-2.83 -8.62,-6.64 -11.45,-11.45c-2.82,-4.8 -4.24,-10.03 -4.24,-15.68l0,-14.2l32.86,0l0,12.5l86.49,0l0,-26.71l-87.97,0c-5.66,0 -10.89,-1.41 -15.69,-4.24c-4.8,-2.82 -8.62,-6.57 -11.45,-11.23c-2.82,-4.81 -4.24,-10.11 -4.24,-15.9l0,-30.1c0,-5.79 1.42,-11.02 4.24,-15.69c2.83,-4.8 6.65,-8.62 11.45,-11.44c4.8,-2.83 10.03,-4.24 15.69,-4.24l89.87,0c5.66,0 10.81,1.41 15.48,4.24c4.8,2.82 8.62,6.64 11.45,11.44c2.96,4.67 4.45,9.9 4.45,15.69l0,14.2l-33.28,0l0,-12.5l-86.49,0l0,26.7l88.39,0c5.66,0 10.81,1.42 15.48,4.24c4.8,2.83 8.62,6.65 11.45,11.45c2.96,4.66 4.45,9.89 4.45,15.69l0,30.1c0,5.65 -1.49,10.88 -4.45,15.68c-2.83,4.81 -6.65,8.62 -11.45,11.45c-4.67,2.83 -9.82,4.24 -15.48,4.24l-89.87,0zm144.59,0l0,-152.41l121.04,0c5.79,0 11.02,1.41 15.69,4.24c4.8,2.82 8.62,6.64 11.44,11.45c2.97,4.8 4.45,10.03 4.45,15.68l0,39.43c0,5.65 -1.48,10.88 -4.45,15.69c-2.82,4.8 -6.64,8.62 -11.44,11.44c-4.67,2.83 -9.9,4.24 -15.69,4.24l-88.18,0.21l0,50.03l-32.86,0zm32.86,-83.31l86.48,0l0,-36.24l-86.48,0l0,36.24zm165.77,83.31c-5.66,0 -10.89,-1.41 -15.69,-4.24c-4.81,-2.83 -8.62,-6.64 -11.45,-11.45c-2.82,-4.8 -4.24,-10.03 -4.24,-15.68l0,-89.88c0,-5.79 1.42,-11.02 4.24,-15.69c2.83,-4.8 6.64,-8.62 11.45,-11.44c4.8,-2.83 10.03,-4.24 15.69,-4.24l89.87,0c5.66,0 10.81,1.41 15.48,4.24c4.8,2.82 8.62,6.64 11.44,11.44c2.97,4.67 4.46,9.9 4.46,15.69l0,89.88c0,5.65 -1.49,10.88 -4.46,15.68c-2.82,4.81 -6.64,8.62 -11.44,11.45c-4.67,2.83 -9.82,4.24 -15.48,4.24l-89.87,0zm1.48,-33.07l86.49,0l0,-86.48l-86.49,0l0,86.48zm261.6,33.07l-44.3,-52.78l43.03,0l35.19,41.55l0,11.23l-33.92,0zm-118.49,0l0,-152.41l121.04,0c5.79,0 11.02,1.41 15.68,4.24c4.81,2.82 8.63,6.64 11.45,11.45c2.97,4.8 4.45,10.03 4.45,15.68l0,39.43c0,5.65 -1.48,10.88 -4.45,15.69c-2.82,4.8 -6.64,8.62 -11.45,11.44c-4.66,2.83 -9.89,4.24 -15.68,4.24l-88.18,0.21l0,50.03l-32.86,0zm32.86,-83.31l86.48,0l0,-36.24l-86.48,0l0,36.24zm194.21,83.31l0,-119.55l-59.78,0l0,-33.07l152.62,0l0,33.07l-59.77,0l0,119.55l-33.07,0zm103.4,0l0,-152.62l32.43,0l0,152.62l-32.43,0zm134.57,0l-88.39,-152.62l38.16,0l64.01,110.86l64.02,-110.86l37.94,0l-88.39,152.62l-27.35,0zm159.61,0c-5.65,0 -10.88,-1.41 -15.69,-4.24c-4.8,-2.83 -8.62,-6.64 -11.44,-11.45c-2.83,-4.8 -4.24,-10.03 -4.24,-15.68l0,-89.88c0,-5.79 1.41,-11.02 4.24,-15.69c2.82,-4.8 6.64,-8.62 11.44,-11.44c4.81,-2.83 10.04,-4.24 15.69,-4.24l89.88,0c5.65,0 10.81,1.41 15.47,4.24c4.81,2.82 8.62,6.64 11.45,11.44c2.96,4.67 4.45,9.9 4.45,15.69l0,89.88c0,5.65 -1.49,10.88 -4.45,15.68c-2.83,4.81 -6.64,8.62 -11.45,11.45c-4.66,2.83 -9.82,4.24 -15.47,4.24l-89.88,0zm1.48,-33.07l86.49,0l0,-86.48l-86.49,0l0,86.48zm142.69,33.07l0,-32.43l32.43,0l0,32.43l-32.43,0zm44.6,0l0,-152.62l32.43,0l0,152.62l-32.43,0zm106.92,0l0,-119.55l-59.78,0l0,-33.07l152.62,0l0,33.07l-59.77,0l0,119.55l-33.07,0z"/>
  <path id="svg_2" fill="white" d="m151,1541l0,-282l-141,0l0,-78l360,0l0,78l-141,0l0,282l-78,0zm287.395,0l0,-286c0,-13.67 3.333,-26 10,-37c6.666,-11.33 15.666,-20.33 27,-27c11.333,-6.67 23.666,-10 37,-10l211.5,0c13.666,0 26,3.33 37,10c11.333,6.67 20.333,15.67 27,27c7,11 10.5,23.33 10.5,37l0,286l-78.5,0l0,-116l-204,0l0,116l-77.5,0zm77.5,-194l204,0l0,-88l-204,0l0,88zm369.968,194l0,-360l78,0l0,141l70.497,0l118,-141l81,0l0,27l-128.5,153l128.5,153l0,27l-81,0l-118,-141l-70.497,0l0,141l-78,0zm428.937,0l0,-360l332.5,0l0,78l-254,0l0,63l204.5,0l0,78l-204.5,0l0,63l254,0l0,78l-332.5,0zm675.95,0c-13.34,0 -25.67,-3.33 -37,-10c-11.34,-6.67 -20.34,-15.67 -27,-27c-6.67,-11.33 -10,-23.67 -10,-37l0,-33.5l77.5,0l0,29.5l204,0l0,-63l-207.5,0c-13.34,0 -25.67,-3.33 -37,-10c-11.34,-6.67 -20.34,-15.5 -27,-26.5c-6.67,-11.33 -10,-23.83 -10,-37.5l0,-71c0,-13.67 3.33,-26 10,-37c6.66,-11.33 15.66,-20.33 27,-27c11.33,-6.67 23.66,-10 37,-10l212,0c13.33,0 25.5,3.33 36.5,10c11.33,6.67 20.33,15.67 27,27c7,11 10.5,23.33 10.5,37l0,33.5l-78.5,0l0,-29.5l-204,0l0,63l208.5,0c13.33,0 25.5,3.33 36.5,10c11.33,6.67 20.33,15.67 27,27c7,11 10.5,23.33 10.5,37l0,71c0,13.33 -3.5,25.67 -10.5,37c-6.67,11.33 -15.67,20.33 -27,27c-11,6.67 -23.17,10 -36.5,10l-212,0zm371.06,0l0,-359.5l285.5,0c13.67,0 26,3.33 37,10c11.33,6.67 20.33,15.67 27,27c7,11.33 10.5,23.67 10.5,37l0,93c0,13.33 -3.5,25.67 -10.5,37c-6.67,11.33 -15.67,20.33 -27,27c-11,6.67 -23.33,10 -37,10l-208,0.5l0,118l-77.5,0zm77.5,-196.5l204,0l0,-85.5l-204,0l0,85.5zm421.01,196.5c-13.34,0 -25.67,-3.33 -37,-10c-11.34,-6.67 -20.34,-15.67 -27,-27c-6.67,-11.33 -10,-23.67 -10,-37l0,-212c0,-13.67 3.33,-26 10,-37c6.66,-11.33 15.66,-20.33 27,-27c11.33,-6.67 23.66,-10 37,-10l212,0c13.33,0 25.5,3.33 36.5,10c11.33,6.67 20.33,15.67 27,27c7,11 10.5,23.33 10.5,37l0,212c0,13.33 -3.5,25.67 -10.5,37c-6.67,11.33 -15.67,20.33 -27,27c-11,6.67 -23.17,10 -36.5,10l-212,0zm3.5,-78l204,0l0,-204l-204,0l0,204zm647.06,78l-104.5,-124.5l101.5,0l83,98l0,26.5l-80,0zm-279.5,0l0,-359.5l285.5,0c13.67,0 26,3.33 37,10c11.33,6.67 20.33,15.67 27,27c7,11.33 10.5,23.67 10.5,37l0,93c0,13.33 -3.5,25.67 -10.5,37c-6.67,11.33 -15.67,20.33 -27,27c-11,6.67 -23.33,10 -37,10l-208,0.5l0,118l-77.5,0zm77.5,-196.5l204,0l0,-85.5l-204,0l0,85.5zm488.1,196.5l0,-282l-141,0l0,-78l360,0l0,78l-141,0l0,282l-78,0z"/>
  <path id="svg_3" fill="white" d="m1920.66,222.226l-176.7,757.774l-398.09,0c-160.46,0 -82.77,-210.437 16.25,-210.437l114.75,0c123.39,0 112.22,-176.447 40.12,-176.447l-267.6,0c-194.98,0 -95.97,-207.938 0,-207.938l307.71,0c90.2,0 98.33,-178.947 31.99,-178.947l-502.69,0c-189.4,0 -63.98,-205.43875 13.71,-205.43875c571.92,3.66557 1753.73,8.7974 1905.66,0c189.9,-10.99675 179.24,94.97165 128.46,163.45075c-35.21,47.486 -77.68,57.983 -128.46,57.983l-1085.11,0z"/>
  <path id="svg_4" fill="white" d="m2920.46,385.178l-780.95,0c-58.39,157.953 67.03,219.601 123.39,223.933l571.75,0l-37.57,160.452l-641.32,0c-176.2,0 -176.2,210.437 -61.44,210.437l687.01,0c256.25,0 224.44,-152.954 275.22,-386.884c34.75,-160.12 -80.91,-201.773 -136.09,-207.938z"/>
  <path id="svg_5" fill="white" d="m930.332,580.327c122.378,0 164.008,-185.445 41.129,-185.445c-122.877,0 -157.406,185.445 -41.129,185.445z"/>
 </g>
</svg>